<?xml version="1.0" encoding="utf-8"?>
<svg xmlns="http://www.w3.org/2000/svg"
	xmlns:xlink="http://www.w3.org/1999/xlink"
	width="40px" height="40px" viewBox="0 0 40 40">
<path fillRule="evenodd" d="M 38.52 33.43C 40.17 35.08 40.56 37.38 39.1 38.84 39.1 38.84 38.85 39.09 38.85 39.09 37.38 40.56 35.08 40.16 33.43 38.52 33.43 38.52 27.23 32.32 25.16 30.25 24.78 29.87 24.33 30.14 24.33 30.14 18.09 33.88 10.1 33.07 4.73 27.7-1.61 21.37-1.61 11.07 4.73 4.75 11.06-1.58 21.36-1.58 27.69 4.75 33.07 10.11 33.88 18.1 30.14 24.33 30.14 24.33 29.87 24.78 30.23 25.15 32.3 27.22 38.52 33.43 38.52 33.43ZM 24.7 7.74C 20.02 3.07 12.4 3.07 7.72 7.74 3.05 12.42 3.05 20.03 7.72 24.7 12.4 29.38 20.02 29.38 24.7 24.7 29.38 20.03 29.38 12.42 24.7 7.74ZM 22.46 18.6C 22.46 18.6 18.88 18.6 18.88 18.6 18.88 18.6 18.48 18.61 18.48 18.98 18.48 19.88 18.48 22.58 18.48 22.58 18.48 23.29 17.9 23.87 17.19 23.87 17.19 23.87 15.05 23.87 15.05 23.87 14.35 23.87 13.77 23.29 13.77 22.58 13.77 22.58 13.77 19.87 13.77 18.96 13.77 18.62 13.37 18.6 13.37 18.6 13.37 18.6 9.78 18.6 9.78 18.6 9.07 18.6 8.49 18.02 8.49 17.31 8.49 17.31 8.49 15.17 8.49 15.17 8.49 14.47 9.07 13.89 9.78 13.89 9.78 13.89 13.42 13.89 13.42 13.89 13.42 13.89 13.77 13.86 13.77 13.5 13.77 12.6 13.77 9.91 13.77 9.91 13.77 9.2 14.35 8.62 15.05 8.62 15.05 8.62 17.19 8.62 17.19 8.62 17.9 8.62 18.48 9.2 18.48 9.91 18.48 9.91 18.48 12.59 18.48 13.48 18.48 13.86 18.85 13.88 18.85 13.88 18.85 13.88 22.46 13.88 22.46 13.88 23.17 13.88 23.75 14.46 23.75 15.17 23.75 15.17 23.75 17.31 23.75 17.31 23.75 18.02 23.17 18.6 22.46 18.6Z" fill="rgb(255,255,255)"/></svg>