<?xml version="1.0" encoding="UTF-8" standalone="no"?>
<svg width="64px" height="64px" viewBox="0 0 64 64" version="1.1" xmlns="http://www.w3.org/2000/svg" xmlns:xlink="http://www.w3.org/1999/xlink" xmlns:sketch="http://www.bohemiancoding.com/sketch/ns">
    <!-- Generator: Sketch 3.4.3 (16044) - http://www.bohemiancoding.com/sketch -->
    <title>Shape</title>
    <desc>Created with Sketch.</desc>
    <defs></defs>
    <g id="Page-1" stroke="none" stroke-width="1" fill="none" fill-rule="evenodd" sketch:type="MSPage">
        <path d="M32,0 C49.673,0 64,14.327 64,32 C64,49.673 49.673,64 32,64 C14.327,64 0,49.673 0,32 C0,14.327 14.327,0 32,0 Z M17,22.226 C21.358,22.135 28.601,21.365 31.196,23.321 C33.365,24.956 33.816,30.208 30.432,30.88 L30.432,31.1 C33.995,31.313 34.548,37.291 32.398,39.535 C29.721,42.328 22.439,41.595 17,41.507 L17,22.226 Z M37.749,23.321 L45.939,23.321 L45.939,25.731 L37.749,25.731 L37.749,23.321 Z M21.586,25.622 L21.586,29.895 C23.684,29.934 26.981,30.264 28.357,29.456 C28.651,28.533 28.739,27.318 28.466,26.279 C27.093,25.304 23.937,25.589 21.586,25.622 Z M48.996,35.482 L38.731,35.482 C38.606,39.46 44.339,39.965 45.393,36.796 L48.887,36.796 C48.304,45.042 32.528,43.184 34.473,33.4 C36.182,24.8 49.253,24.353 48.996,35.482 Z M41.243,30.004 C39.771,30.799 39.246,31.198 38.622,32.852 L45.174,32.852 L45.174,32.743 C44.798,30.654 43.829,29.896 41.243,30.004 Z M21.586,32.962 L21.586,38.111 C24.857,38.222 30.197,38.992 29.449,35.043 C28.913,32.21 24.888,32.852 21.586,32.962 Z" id="Shape" fill="#FFFFFF" sketch:type="MSShapeGroup"></path>
    </g>
</svg>