<?xml version="1.0" encoding="utf-8"?>
<svg xmlns="http://www.w3.org/2000/svg"
	xmlns:xlink="http://www.w3.org/1999/xlink"
	width="32px" height="32px" viewBox="0 0 32 32">
<path fillRule="evenodd" d="M 16 32C 7.16 32-0 24.84-0 16-0 7.16 7.16-0 16-0 24.84-0 32 7.16 32 16 32 24.84 24.84 32 16 32ZM 17.51 9.5C 16.56 9.5 16.02 9.64 15.4 9.93 14.78 10.21 14.5 10.72 14.27 11.17 14.04 11.63 13.93 12.18 13.93 13.11 13.93 13.11 13.93 13.43 13.93 13.43 13.93 13.43 12.55 13.43 12.55 13.43 12.55 13.43 12.5 15.89 12.5 15.89 12.5 15.89 13.85 15.89 13.85 15.89 13.85 15.89 13.85 22.5 13.85 22.5 13.85 22.5 16.82 22.5 16.82 22.5 16.82 22.5 16.82 15.89 16.82 15.89 16.82 15.89 18.93 15.89 18.93 15.89 18.93 15.89 19.5 13.43 19.5 13.43 19.5 13.43 16.7 13.43 16.7 13.43 16.7 13.43 16.48 12.41 16.9 12.03 17.11 11.83 17.49 11.68 17.99 11.68 18.49 11.68 18.89 11.93 19.39 12.21 19.39 12.21 19.99 10.05 19.99 10.05 19.07 9.8 18.47 9.5 17.51 9.5Z" fill="rgb(255,255,255)" opacity="0.99"/></svg>